Coordinates
version=1
nRows=8
nColumns=40
inDegrees=yes

Units are S.I. units (second, meters, Newtons, ...)
Angles are in degrees.

endheader
time	pelvis_tilt	pelvis_list	pelvis_rotation	pelvis_tx	pelvis_ty	pelvis_tz	hip_flexion_r	hip_adduction_r	hip_rotation_r	knee_angle_r	knee_angle_r_beta	ankle_angle_r	subtalar_angle_r	mtp_angle_r	hip_flexion_l	hip_adduction_l	hip_rotation_l	knee_angle_l	knee_angle_l_beta	ankle_angle_l	subtalar_angle_l	mtp_angle_l	lumbar_extension	lumbar_bending	lumbar_rotation	arm_flex_r	arm_add_r	arm_rot_r	elbow_flex_r	pro_sup_r	wrist_flex_r	wrist_dev_r	arm_flex_l	arm_add_l	arm_rot_l	elbow_flex_l	pro_sup_l	wrist_flex_l	wrist_dev_l
      9.44250000	     -4.91429028	     -4.04438323	     -2.60989035	      0.96458965	      0.91758422	      0.43013678	     19.91113916	     -6.71707121	     -5.45250366	     62.22322906	     62.22322906	     -1.45036888	    -18.13015768	     -1.98172193	     18.98471660	     -2.57993454	     -1.30054435	     31.15981354	     31.15981354	     19.20335118	    -16.85706477	      7.70178800	     -9.23962189	      5.50465489	      2.74007206	     18.77255201	    -13.59351753	    -14.86791375	     27.07218046	     46.89829608	      0.00000000	      0.00000000	     12.58786131	    -14.64621677	     17.32311508	     34.03511678	     45.10511648	      0.00000000	      0.00000000
      9.46157143	     -4.73499272	     -4.06612800	     -3.17060698	      0.96396908	      0.91679086	      0.42909242	     21.92891239	     -6.57705553	     -4.93202409	     64.89721107	     64.89721107	     -0.71435036	    -18.50036839	      4.07139251	     18.53995997	     -2.58866330	     -1.66101981	     31.54638529	     31.54638529	     19.85934649	    -17.04327067	      7.94467023	     -9.49432802	      5.77772844	      2.65369096	     16.32027984	    -13.34425033	    -16.63198977	     25.09592108	     47.08984120	      0.00000000	      0.00000000	     14.06852184	    -14.96628783	     16.96466954	     35.31264385	     45.22554484	      0.00000000	      0.00000000
      9.48064286	     -4.61222683	     -3.94779521	     -3.76875746	      0.96317356	      0.91614227	      0.42813897	     23.74372110	     -6.67891311	     -4.62082177	     66.64037689	     66.64037689	     -0.90000563	    -18.91006679	      4.99726971	     18.07392519	     -2.46075921	     -2.13304101	     31.73617877	     31.73617877	     20.30029749	    -17.21702446	      7.84422628	     -9.70980609	      5.92483647	      2.62851376	     13.74304758	    -13.34016121	    -16.86505794	     23.71158910	     47.14659226	      0.00000000	      0.00000000	     15.67529944	    -15.21860434	     16.57150027	     36.45661627	     45.30485484	      0.00000000	      0.00000000
      9.49971429	     -4.50934891	     -3.95119498	     -4.33879696	      0.96229745	      0.91604274	      0.42761090	     25.33936357	     -6.53132082	     -4.43718174	     67.54279112	     67.54279112	     -0.42588979	    -19.07617544	      6.17344741	     17.51656622	     -2.50282108	     -2.64715812	     31.70743241	     31.70743241	     20.65309584	    -17.24605912	      7.82699776	    -10.00114929	      6.15108470	      2.56882374	     11.18685562	    -13.27259174	    -17.10850448	     22.40223627	     47.20335716	      0.00000000	      0.00000000	     17.26252836	    -15.57736926	     16.07366669	     37.76211419	     45.39460902	      0.00000000	      0.00000000
      9.51878571	     -4.49631957	     -4.11006254	     -4.98193746	      0.96123611	      0.91632621	      0.42772698	     27.00865667	     -5.86153773	     -4.04452479	     67.90440229	     67.90440229	      1.70226528	    -18.99062677	     11.40820746	     16.94843434	     -2.79604894	     -3.26368005	     31.49725338	     31.49725338	     20.96127143	    -17.09165497	      7.81607587	    -10.27132810	      6.56176433	      2.45063784	      8.92387402	    -13.15570700	    -18.61249037	     21.33727565	     47.38404371	      0.00000000	      0.00000000	     18.05323666	    -16.11563745	     14.29776291	     40.95541432	     45.65416214	      0.00000000	      0.00000000
      9.53785714	     -4.58643867	     -4.12962724	     -5.64595083	      0.96007099	      0.91699394	      0.42800545	     28.39900340	     -5.43887290	     -3.86431060	     67.09381659	     67.09381659	      2.58898022	    -18.93953539	     11.05336284	     16.32383120	     -2.92917525	     -3.92624409	     30.93950412	     30.93950412	     21.09849304	    -16.95672843	      7.80508187	    -10.41579468	      6.81589655	      2.59736054	      6.59294956	    -13.16305368	    -18.87518476	     20.22496865	     47.44117038	      0.00000000	      0.00000000	     19.60186555	    -16.41096144	     13.57051833	     42.42390202	     45.76506020	      0.00000000	      0.00000000
      9.55692857	     -4.74895341	     -4.21034428	     -6.33716593	      0.95881254	      0.91804245	      0.42874983	     29.56697108	     -4.83232849	     -3.70782974	     65.32728605	     65.32728605	      3.56770060	    -18.77544729	     10.12752762	     15.66682525	     -3.17667205	     -4.66960958	     30.18653941	     30.18653941	     21.12055240	    -16.68537844	      7.67764186	    -10.56897454	      7.11177564	      2.80611697	      4.30763254	    -13.13034764	    -19.26614501	     19.47319787	     47.49851896	      0.00000000	      0.00000000	     20.93738348	    -16.77452137	     12.39911822	     44.56230459	     45.92353773	      0.00000000	      0.00000000
      9.57600000	     -5.03640871	     -4.26292262	     -7.03164099	      0.95754082	      0.91931747	      0.42974808	     30.44592690	     -4.29560332	     -3.71961340	     62.43075721	     62.43075721	      3.57338964	    -18.56455019	      5.62816045	     14.97199947	     -3.39893968	     -5.46480473	     29.07672374	     29.07672374	     20.72643036	    -16.46128984	      6.87302588	    -10.63275826	      7.40086521	      2.19927514	      2.41323704	    -12.89307149	    -20.52101550	     19.87734843	     47.61010139	      0.00000000	      0.00000000	     20.92784893	    -17.37495465	      8.85217658	     48.53216184	     46.32798987	      0.00000000	      0.00000000
